<svg width="49" height="49" viewBox="0 0 49 49" fill="none" xmlns="http://www.w3.org/2000/svg">
<g clip-path="url(#clip0_122_145)">
<path d="M24.5 4.6554C13.46 4.6554 4.5 13.6154 4.5 24.6554C4.5 35.6954 13.46 44.6554 24.5 44.6554C35.54 44.6554 44.5 35.6954 44.5 24.6554C44.5 13.6154 35.54 4.6554 24.5 4.6554ZM24.5 10.6554C27.82 10.6554 30.5 13.3354 30.5 16.6554C30.5 19.9754 27.82 22.6554 24.5 22.6554C21.18 22.6554 18.5 19.9754 18.5 16.6554C18.5 13.3354 21.18 10.6554 24.5 10.6554ZM24.5 39.0554C19.5 39.0554 15.08 36.4954 12.5 32.6154C12.56 28.6354 20.5 26.4554 24.5 26.4554C28.48 26.4554 36.44 28.6354 36.5 32.6154C33.92 36.4954 29.5 39.0554 24.5 39.0554Z" fill="#CCCCCC"/>
</g>
<defs>
<clipPath id="clip0_122_145">
<rect width="48" height="48" fill="white" transform="translate(0.5 0.655396)"/>
</clipPath>
</defs>
</svg>
