<svg width="25" height="25" viewBox="0 0 25 25" fill="none" xmlns="http://www.w3.org/2000/svg">
<g clip-path="url(#clip0_82_184)">
<rect width="24" height="24" transform="translate(0.5 0.5)" fill="#115250"/>
<path d="M12.38 9.64C13.66 9.7 13.99 10.79 14.01 11.3H15.8C15.72 9.32 14.31 8.11 12.35 8.11C10.14 8.11 8.5 9.5 8.5 12.64C8.5 14.58 9.43 16.88 12.34 16.88C14.56 16.88 15.75 15.23 15.78 13.93H13.99C13.96 14.52 13.54 15.31 12.36 15.37C11.05 15.33 10.5 14.31 10.5 12.64C10.5 9.75 11.78 9.66 12.38 9.64ZM12.5 2.5C6.98 2.5 2.5 6.98 2.5 12.5C2.5 18.02 6.98 22.5 12.5 22.5C18.02 22.5 22.5 18.02 22.5 12.5C22.5 6.98 18.02 2.5 12.5 2.5ZM12.5 20.5C8.09 20.5 4.5 16.91 4.5 12.5C4.5 8.09 8.09 4.5 12.5 4.5C16.91 4.5 20.5 8.09 20.5 12.5C20.5 16.91 16.91 20.5 12.5 20.5Z" fill="#D9D9D9"/>
</g>
<defs>
<clipPath id="clip0_82_184">
<rect width="24" height="24" fill="white" transform="translate(0.5 0.5)"/>
</clipPath>
</defs>
</svg>
