<svg width="96" height="96" viewBox="0 0 96 96" fill="none" xmlns="http://www.w3.org/2000/svg">
<path d="M48 8C25.956 8 8 25.956 8 48C8 70.044 25.956 88 48 88C70.044 88 88 70.044 88 48C88 25.956 70.044 8 48 8ZM48 16C65.7205 16 80 30.2795 80 48C80 64.0579 68.2613 77.2521 52.875 79.5938V57.5391H62.1875L63.6484 48.0781H52.875V42.9062C52.875 38.9742 54.1559 35.4844 57.8359 35.4844H63.7422V27.2266C62.7022 27.0866 60.5074 26.7812 56.3594 26.7812C47.6954 26.7812 42.6172 31.3572 42.6172 41.7812V48.0781H33.7109V57.5391H42.6172V79.5156C27.4812 76.9634 16 63.8809 16 48C16 30.2795 30.2795 16 48 16Z" fill="black" fill-opacity="0.24"/>
</svg>
