<svg width="97" height="97" viewBox="0 0 97 97" fill="none" xmlns="http://www.w3.org/2000/svg">
<path d="M48.5 8.65527C26.456 8.65527 8.5 26.6113 8.5 48.6553C8.5 70.6993 26.456 88.6553 48.5 88.6553C70.544 88.6553 88.5 70.6993 88.5 48.6553C88.5 26.6113 70.544 8.65527 48.5 8.65527ZM48.5 16.6553C66.2205 16.6553 80.5 30.9348 80.5 48.6553C80.5 64.7131 68.7613 77.9073 53.375 80.249V58.1943H62.6875L64.1484 48.7334H53.375V43.5615C53.375 39.6295 54.6559 36.1396 58.3359 36.1396H64.2422V27.8818C63.2022 27.7418 61.0074 27.4365 56.8594 27.4365C48.1954 27.4365 43.1172 32.0125 43.1172 42.4365V48.7334H34.2109V58.1943H43.1172V80.1709C27.9812 77.6187 16.5 64.5362 16.5 48.6553C16.5 30.9348 30.7795 16.6553 48.5 16.6553Z" fill="black" fill-opacity="0.24"/>
</svg>
