<svg width="97" height="97" viewBox="0 0 97 97" fill="none" xmlns="http://www.w3.org/2000/svg">
<path d="M48.5 8.34467C26.456 8.34467 8.5 26.3007 8.5 48.3447C8.5 70.3887 26.456 88.3447 48.5 88.3447C70.544 88.3447 88.5 70.3887 88.5 48.3447C88.5 26.3007 70.544 8.34467 48.5 8.34467ZM48.5 16.3447C66.2205 16.3447 80.5 30.6242 80.5 48.3447C80.5 64.4025 68.7613 77.5967 53.375 79.9384V57.8837H62.6875L64.1484 48.4228H53.375V43.2509C53.375 39.3189 54.6559 35.829 58.3359 35.829H64.2422V27.5712C63.2022 27.4312 61.0074 27.1259 56.8594 27.1259C48.1954 27.1259 43.1172 31.7019 43.1172 42.1259V48.4228H34.2109V57.8837H43.1172V79.8603C27.9812 77.308 16.5 64.2256 16.5 48.3447C16.5 30.6242 30.7795 16.3447 48.5 16.3447Z" fill="black" fill-opacity="0.24"/>
</svg>
