<svg width="24" height="25" viewBox="0 0 24 25" fill="none" xmlns="http://www.w3.org/2000/svg">
<path d="M12 2.5C6.47656 2.5 2 6.97656 2 12.5C2 18.0234 6.47656 22.5 12 22.5C17.5234 22.5 22 18.0234 22 12.5C22 6.97656 17.5234 2.5 12 2.5ZM12 4.5C16.4102 4.5 20 8.08984 20 12.5C20 12.9688 19.9531 13.4297 19.875 13.875C19.6289 13.8203 19.2656 13.7539 18.8438 13.75C18.5312 13.7461 18.1406 13.7969 17.8125 13.8438C17.9258 13.4961 18 13.1133 18 12.7188C18 11.7578 17.5312 10.8633 16.7812 10.125C16.9883 9.35547 17.1914 8.03516 16.6562 7.5C15.0742 7.5 14.1992 8.62891 14.1562 8.6875C13.668 8.57031 13.1641 8.5 12.625 8.5C11.9336 8.5 11.2734 8.625 10.6562 8.8125L10.8438 8.65625C10.8438 8.65625 9.96484 7.4375 8.34375 7.4375C7.77734 8.00781 8.03516 9.45312 8.25 10.1875C7.48438 10.918 7 11.7812 7 12.7188C7 13.0469 7.07812 13.3594 7.15625 13.6562C6.87891 13.625 5.87891 13.5312 5.46875 13.5312C5.10547 13.5312 4.54297 13.6172 4.09375 13.7188C4.03125 13.3203 4 12.9141 4 12.5C4 8.08984 7.58984 4.5 12 4.5ZM5.46875 13.7812C5.86328 13.7812 7.0625 13.9219 7.21875 13.9375C7.23828 13.9922 7.25781 14.043 7.28125 14.0938C6.85156 14.0547 6.01953 13.9961 5.46875 14.0625C5.10156 14.1055 4.63281 14.2383 4.21875 14.3438C4.1875 14.2188 4.14844 14.0977 4.125 13.9688C4.5625 13.875 5.13672 13.7812 5.46875 13.7812ZM18.8438 14C19.2422 14.0039 19.6055 14.0703 19.8438 14.125C19.832 14.1914 19.7969 14.2461 19.7812 14.3125C19.5273 14.2539 19.1094 14.168 18.625 14.1562C18.3906 14.1523 18.0156 14.1641 17.6875 14.1875C17.7031 14.1562 17.707 14.125 17.7188 14.0938C18.0586 14.0469 18.4922 13.9961 18.8438 14ZM6.09375 14.2812C6.65625 14.2852 7.18359 14.3242 7.40625 14.3438C7.92969 15.3203 8.98828 16.043 10.625 16.3438C10.2227 16.5664 9.86328 16.8789 9.59375 17.25C9.35938 17.2695 9.11328 17.2812 8.875 17.2812C8.17969 17.2812 7.74609 16.6602 7.375 16.125C7 15.5898 6.53906 15.5312 6.28125 15.5C6.01953 15.4688 5.92969 15.6172 6.0625 15.7188C6.82422 16.3047 7.09766 17 7.40625 17.625C7.68359 18.1875 8.26562 18.5 8.90625 18.5H9.03125C9.01172 18.6094 9 18.7109 9 18.8125V19.9062C6.69141 18.9727 4.93359 17 4.28125 14.5625C4.69141 14.4609 5.15234 14.3555 5.5 14.3125C5.66016 14.293 5.86328 14.2773 6.09375 14.2812ZM18.625 14.4062C19.0742 14.418 19.4727 14.5039 19.7188 14.5625C19.168 16.6328 17.8086 18.3555 16 19.4062V18.8125C16 17.9609 15.3281 16.8672 14.375 16.3438C15.957 16.0547 16.9883 15.3633 17.5312 14.4375C17.9102 14.4102 18.3555 14.3984 18.625 14.4062ZM12.5 18.5C12.7734 18.5 13 18.7266 13 19V20.4375C12.6719 20.4805 12.3398 20.5 12 20.5V19C12 18.7266 12.2266 18.5 12.5 18.5ZM10.5 19.5C10.7734 19.5 11 19.7266 11 20V20.4375C10.6641 20.3945 10.3242 20.332 10 20.25V20C10 19.7266 10.2266 19.5 10.5 19.5ZM14.5 19.5C14.7422 19.5 14.9531 19.6758 15 19.9062C14.6758 20.0391 14.3438 20.1602 14 20.25V20C14 19.7266 14.2266 19.5 14.5 19.5Z" fill="#D9D9D9"/>
</svg>
