<svg width="97" height="97" viewBox="0 0 97 97" fill="none" xmlns="http://www.w3.org/2000/svg">
<path d="M48.5 8.65527C26.408 8.65527 8.5 26.5633 8.5 48.6553C8.5 70.7473 26.408 88.6553 48.5 88.6553C70.592 88.6553 88.5 70.7473 88.5 48.6553C88.5 26.5633 70.592 8.65527 48.5 8.65527ZM40.5 64.6553C31.664 64.6553 24.5 57.4913 24.5 48.6553C24.5 39.8193 31.664 32.6553 40.5 32.6553C44.668 32.6553 48.428 34.2873 51.276 36.8993L46.904 41.0353C45.168 39.5713 42.952 38.6553 40.5 38.6553C34.976 38.6553 30.5 43.1313 30.5 48.6553C30.5 54.1793 34.976 58.6553 40.5 58.6553C45.336 58.6553 49.372 55.2193 50.3 50.6553H40.5V44.6553H55.936C56.268 45.9393 56.5 47.2673 56.5 48.6553C56.5 57.4913 49.336 64.6553 40.5 64.6553ZM72.5 48.6553V54.6553H68.5V48.6553H62.5V44.6553H68.5V38.6553H72.5V44.6553H78.5V48.6553H72.5ZM80.5 48.6553C80.5 66.3273 66.172 80.6553 48.5 80.6553C30.828 80.6553 16.5 66.3273 16.5 48.6553C16.5 30.9833 30.828 16.6553 48.5 16.6553C66.172 16.6553 80.5 30.9833 80.5 48.6553Z" fill="black" fill-opacity="0.24"/>
</svg>
