<svg width="97" height="97" viewBox="0 0 97 97" fill="none" xmlns="http://www.w3.org/2000/svg">
<path d="M48.5 8.34467C26.408 8.34467 8.5 26.2527 8.5 48.3447C8.5 70.4367 26.408 88.3447 48.5 88.3447C70.592 88.3447 88.5 70.4367 88.5 48.3447C88.5 26.2527 70.592 8.34467 48.5 8.34467ZM40.5 64.3447C31.664 64.3447 24.5 57.1807 24.5 48.3447C24.5 39.5087 31.664 32.3447 40.5 32.3447C44.668 32.3447 48.428 33.9767 51.276 36.5887L46.904 40.7247C45.168 39.2607 42.952 38.3447 40.5 38.3447C34.976 38.3447 30.5 42.8207 30.5 48.3447C30.5 53.8687 34.976 58.3447 40.5 58.3447C45.336 58.3447 49.372 54.9087 50.3 50.3447H40.5V44.3447H55.936C56.268 45.6287 56.5 46.9567 56.5 48.3447C56.5 57.1807 49.336 64.3447 40.5 64.3447ZM72.5 48.3447V54.3447H68.5V48.3447H62.5V44.3447H68.5V38.3447H72.5V44.3447H78.5V48.3447H72.5ZM80.5 48.3447C80.5 66.0167 66.172 80.3447 48.5 80.3447C30.828 80.3447 16.5 66.0167 16.5 48.3447C16.5 30.6727 30.828 16.3447 48.5 16.3447C66.172 16.3447 80.5 30.6727 80.5 48.3447Z" fill="black" fill-opacity="0.24"/>
</svg>
