<svg width="96" height="96" viewBox="0 0 96 96" fill="none" xmlns="http://www.w3.org/2000/svg">
<path d="M48 8C25.908 8 8 25.908 8 48C8 70.092 25.908 88 48 88C70.092 88 88 70.092 88 48C88 25.908 70.092 8 48 8ZM40 64C31.164 64 24 56.836 24 48C24 39.164 31.164 32 40 32C44.168 32 47.928 33.632 50.776 36.244L46.404 40.38C44.668 38.916 42.452 38 40 38C34.476 38 30 42.476 30 48C30 53.524 34.476 58 40 58C44.836 58 48.872 54.564 49.8 50H40V44H55.436C55.768 45.284 56 46.612 56 48C56 56.836 48.836 64 40 64ZM72 48V54H68V48H62V44H68V38H72V44H78V48H72ZM80 48C80 65.672 65.672 80 48 80C30.328 80 16 65.672 16 48C16 30.328 30.328 16 48 16C65.672 16 80 30.328 80 48Z" fill="black" fill-opacity="0.24"/>
</svg>
