<svg width="97" height="97" viewBox="0 0 97 97" fill="none" xmlns="http://www.w3.org/2000/svg">
<path d="M20.5 12.3447C16.08 12.3447 12.5 15.9247 12.5 20.3447V76.3447C12.5 80.7647 16.08 84.3447 20.5 84.3447H76.5C80.92 84.3447 84.5 80.7647 84.5 76.3447V20.3447C84.5 15.9247 80.92 12.3447 76.5 12.3447H20.5ZM20.5 20.3447H76.5V76.3447H20.5V20.3447ZM31.6172 25.6103C28.1892 25.6103 26.1328 27.671 26.1328 30.415C26.1328 33.159 28.1894 35.2119 31.2734 35.2119C34.7014 35.2119 36.7578 33.159 36.7578 30.415C36.7578 27.671 34.7012 25.6103 31.6172 25.6103ZM26.4062 40.3447V68.3447H36.5V40.3447H26.4062ZM44.8281 40.3447V68.3447H54.9219V53.04C54.9219 48.484 58.1724 47.829 59.1484 47.829C60.1244 47.829 62.7344 48.808 62.7344 53.04V68.3447H72.5V53.04C72.5 44.252 68.5949 40.3447 63.7109 40.3447C58.8269 40.3447 56.2219 41.9709 54.9219 44.2509V40.3447H44.8281Z" fill="black" fill-opacity="0.24"/>
</svg>
