<svg width="97" height="97" viewBox="0 0 97 97" fill="none" xmlns="http://www.w3.org/2000/svg">
<path d="M20.5 12.6553C16.08 12.6553 12.5 16.2353 12.5 20.6553V76.6553C12.5 81.0753 16.08 84.6553 20.5 84.6553H76.5C80.92 84.6553 84.5 81.0753 84.5 76.6553V20.6553C84.5 16.2353 80.92 12.6553 76.5 12.6553H20.5ZM20.5 20.6553H76.5V76.6553H20.5V20.6553ZM31.6172 25.9209C28.1892 25.9209 26.1328 27.9816 26.1328 30.7256C26.1328 33.4696 28.1894 35.5225 31.2734 35.5225C34.7014 35.5225 36.7578 33.4696 36.7578 30.7256C36.7578 27.9816 34.7012 25.9209 31.6172 25.9209ZM26.4062 40.6553V68.6553H36.5V40.6553H26.4062ZM44.8281 40.6553V68.6553H54.9219V53.3506C54.9219 48.7946 58.1724 48.1396 59.1484 48.1396C60.1244 48.1396 62.7344 49.1186 62.7344 53.3506V68.6553H72.5V53.3506C72.5 44.5626 68.5949 40.6553 63.7109 40.6553C58.8269 40.6553 56.2219 42.2815 54.9219 44.5615V40.6553H44.8281Z" fill="black" fill-opacity="0.24"/>
</svg>
