<svg width="49" height="49" viewBox="0 0 49 49" fill="none" xmlns="http://www.w3.org/2000/svg">
<g clip-path="url(#clip0_97_90)">
<path d="M36.5 16.6554H34.5V12.6554C34.5 7.1354 30.02 2.6554 24.5 2.6554C18.98 2.6554 14.5 7.1354 14.5 12.6554V16.6554H12.5C10.3 16.6554 8.5 18.4554 8.5 20.6554V40.6554C8.5 42.8554 10.3 44.6554 12.5 44.6554H36.5C38.7 44.6554 40.5 42.8554 40.5 40.6554V20.6554C40.5 18.4554 38.7 16.6554 36.5 16.6554ZM24.5 34.6554C22.3 34.6554 20.5 32.8554 20.5 30.6554C20.5 28.4554 22.3 26.6554 24.5 26.6554C26.7 26.6554 28.5 28.4554 28.5 30.6554C28.5 32.8554 26.7 34.6554 24.5 34.6554ZM30.7 16.6554H18.3V12.6554C18.3 9.2354 21.08 6.4554 24.5 6.4554C27.92 6.4554 30.7 9.2354 30.7 12.6554V16.6554Z" fill="#CCCCCC"/>
</g>
<defs>
<clipPath id="clip0_97_90">
<rect width="48" height="48" fill="white" transform="translate(0.5 0.655396)"/>
</clipPath>
</defs>
</svg>
