<svg width="24" height="25" viewBox="0 0 24 25" fill="none" xmlns="http://www.w3.org/2000/svg">
<path d="M22 4.49902C21.22 4.96202 19.655 5.59302 18.735 5.77502C18.708 5.78202 18.686 5.79102 18.66 5.79802C17.847 4.99602 16.733 4.49902 15.5 4.49902C13.015 4.49902 11 6.51402 11 8.99902C11 9.13002 10.989 9.37102 11 9.49902C7.647 9.49902 5.095 7.74302 3.265 5.49902C3.066 5.99902 2.979 6.78902 2.979 7.53102C2.979 8.93202 4.074 10.308 5.779 11.161C5.465 11.242 5.119 11.3 4.759 11.3C4.178 11.3 3.563 11.147 3 10.683C3 10.7 3 10.716 3 10.734C3 12.692 5.078 14.025 6.926 14.396C6.551 14.617 5.795 14.639 5.426 14.639C5.166 14.639 4.246 14.52 4 14.474C4.514 16.079 6.368 16.981 8.135 17.013C6.753 18.097 5.794 18.499 2.964 18.499H2C3.788 19.645 6.065 20.5 8.347 20.5C15.777 20.5 20 14.837 20 9.49902C20 9.41302 19.998 9.23302 19.995 9.05202C19.995 9.03402 20 9.01702 20 8.99902C20 8.97202 19.992 8.94602 19.992 8.91902C19.989 8.78302 19.986 8.65602 19.983 8.59002C20.773 8.02002 21.458 7.30902 22 6.49902C21.275 6.82102 20.497 7.03702 19.68 7.13502C20.514 6.63502 21.699 5.44302 22 4.49902Z" fill="#D9D9D9"/>
</svg>
